<?xml version="1.0" standalone="no"?>
<!DOCTYPE svg PUBLIC "-//W3C//DTD SVG 20010904//EN"
 "http://www.w3.org/TR/2001/REC-SVG-20010904/DTD/svg10.dtd">
<svg version="1.0" xmlns="http://www.w3.org/2000/svg"
 width="1101.000000pt" height="1101.000000pt" viewBox="0 0 1101.000000 1101.000000"
 preserveAspectRatio="xMidYMid meet">
<metadata>
Created by potrace 1.16, written by Peter Selinger 2001-2019
</metadata>
<g transform="translate(0.000000,1101.000000) scale(0.100000,-0.100000)"
fill="#000000" stroke="none">
<path d="M1690 10943 c-558 -32 -1069 -342 -1373 -833 -110 -179 -193 -411
-229 -640 -19 -126 -19 -7794 0 -7920 61 -393 232 -724 513 -995 260 -251 580
-409 939 -466 126 -21 7814 -21 7940 0 689 109 1250 617 1414 1280 54 218 51
-30 51 4146 0 3670 -1 3886 -18 3983 -35 206 -125 449 -225 612 -240 390 -616
671 -1045 781 -226 58 99 53 -4082 54 -2106 1 -3855 0 -3885 -2z m4255 -907
c662 -91 1235 -335 1755 -747 145 -115 417 -388 538 -542 363 -457 602 -982
706 -1547 41 -224 50 -333 50 -615 1 -439 -44 -729 -178 -1130 -397 -1191
-1424 -2083 -2661 -2314 -224 -42 -370 -55 -635 -55 -353 0 -610 33 -922 118
-462 127 -853 324 -1248 630 -131 102 -442 409 -547 541 -443 560 -686 1150
-765 1860 -16 145 -15 540 1 685 91 817 416 1514 976 2089 592 608 1360 967
2235 1045 110 10 580 -3 695 -18z m-3275 -7402 c17 -17 47 -291 33 -305 -7 -7
-64 -7 -194 0 -259 16 -334 14 -353 -5 -19 -18 -22 -105 -5 -152 15 -44 41
-47 297 -34 118 6 219 9 225 5 5 -3 6 -25 2 -52 -4 -25 -13 -100 -19 -166 -11
-119 -12 -120 -36 -118 -75 8 -431 15 -454 9 -25 -6 -26 -9 -26 -74 0 -135 26
-147 285 -137 99 5 209 8 245 9 l65 1 3 -37 c5 -64 -35 -281 -56 -298 -15 -12
-38 -14 -133 -8 -62 3 -266 7 -452 7 -305 1 -338 3 -344 18 -3 9 -1 170 6 357
10 266 11 410 2 659 -7 174 -10 321 -7 325 8 13 903 9 916 -4z m3600 -179 c-3
-105 -5 -341 -5 -525 l0 -335 180 5 c99 3 230 5 290 5 l110 0 -1 -130 c-1 -71
-7 -149 -13 -173 l-12 -43 -412 7 c-227 3 -437 9 -467 13 l-55 6 -1 675 c0
371 3 677 7 680 4 3 92 5 196 5 l188 0 -5 -190z m1930 60 c63 -8 121 -15 129
-15 12 0 13 -22 7 -137 -3 -78 -2 -144 3 -152 7 -11 30 -13 119 -7 61 4 113 3
116 -2 2 -4 2 -74 -1 -155 l-6 -146 -116 -3 -116 -3 0 -131 c0 -154 8 -178 68
-196 29 -9 52 -9 96 0 109 23 104 28 96 -95 -4 -60 -12 -114 -18 -121 -19 -23
-104 -62 -174 -78 -47 -11 -96 -15 -158 -11 -138 7 -207 45 -241 134 -15 38
-16 71 -10 264 5 164 4 224 -5 235 -7 8 -29 14 -55 14 -24 0 -44 3 -45 8 -4
52 -1 241 5 250 4 7 22 12 40 12 19 0 39 6 45 14 8 9 11 66 10 169 0 86 2 161
6 167 5 8 22 10 49 6 22 -3 93 -13 156 -21z m984 -293 c59 -90 90 -157 83
-175 -4 -11 -16 -13 -50 -10 -89 10 -170 -53 -154 -120 4 -12 36 -55 72 -95
35 -40 74 -91 86 -114 51 -100 30 -241 -46 -315 -56 -53 -151 -106 -242 -133
-103 -31 -129 -26 -175 35 -44 58 -105 171 -97 179 3 4 43 14 88 23 62 12 90
23 112 44 53 49 39 92 -69 214 -94 105 -116 207 -67 310 54 112 235 221 373
224 42 1 43 0 86 -67z m-1679 34 c80 -21 136 -55 200 -120 95 -98 142 -215
133 -338 -7 -98 -5 -97 -353 -128 -132 -12 -242 -24 -244 -26 -12 -11 46 -76
84 -94 94 -45 215 -33 317 32 26 16 52 27 57 23 14 -8 90 -138 103 -176 10
-28 7 -34 -23 -66 -119 -124 -423 -152 -611 -57 -70 36 -169 132 -201 197
-103 204 -65 481 87 633 113 112 297 162 451 120z m-4156 -42 c64 -19 135 -80
152 -131 6 -19 9 -63 7 -96 -9 -134 -110 -270 -281 -381 -48 -31 -87 -63 -87
-70 0 -61 159 -87 256 -42 70 32 173 132 224 215 48 81 86 104 129 80 21 -12
27 -23 29 -62 6 -95 -106 -267 -218 -336 -167 -103 -369 -128 -498 -62 -137
70 -233 238 -233 406 1 314 263 556 520 479z m986 -13 l310 -6 3 -110 c2 -60
0 -120 -3 -132 -3 -12 -84 -103 -181 -203 l-176 -180 78 0 c44 0 133 5 198 10
66 6 121 8 123 6 2 -2 -5 -39 -16 -82 -10 -44 -22 -104 -26 -134 -14 -104 32
-93 -413 -94 l-392 -1 0 85 c0 47 -3 108 -6 135 l-6 50 78 67 c44 36 131 116
194 177 l115 110 -187 0 c-216 1 -200 -9 -169 106 11 39 24 97 31 130 18 94
13 89 78 80 31 -4 197 -11 367 -14z m772 -2 c7 -7 9 -62 6 -173 -5 -135 -3
-171 11 -212 21 -61 105 -188 128 -192 12 -2 31 18 63 67 79 123 80 124 79
327 l0 181 74 7 c143 12 248 8 263 -11 11 -12 14 -63 14 -227 l0 -211 -39 -70
c-92 -168 -414 -624 -491 -695 -26 -25 -29 -25 -197 -25 -142 0 -172 3 -178
15 -18 36 -80 207 -80 221 0 13 17 17 83 22 46 4 104 14 130 23 47 16 87 53
87 81 0 16 -37 72 -167 248 -137 186 -133 173 -133 415 0 114 3 210 7 213 11
12 328 8 340 -4z"/>
<path d="M5281 9640 c-418 -35 -793 -140 -1151 -321 -853 -431 -1454 -1219
-1638 -2145 -48 -239 -57 -337 -57 -609 1 -242 8 -334 41 -525 199 -1146 1037
-2088 2153 -2419 299 -89 550 -125 876 -124 372 0 663 48 1004 165 990 340
1745 1167 1989 2178 62 258 85 454 85 735 -1 625 -170 1184 -516 1705 -446
673 -1172 1157 -1963 1310 -248 48 -597 69 -823 50z m239 -567 c25 -9 73 -32
108 -52 48 -27 59 -38 50 -47 -33 -29 -2123 -1718 -2563 -2070 -165 -132 -354
-284 -420 -337 -65 -53 -122 -97 -126 -97 -15 0 -34 101 -34 180 0 74 4 93 31
150 17 36 43 80 58 97 40 48 481 405 1861 1509 441 353 813 649 828 659 56 36
119 39 207 8z m393 -286 l87 -12 -162 -188 -162 -188 -736 -508 c-404 -279
-944 -651 -1200 -826 -256 -175 -487 -334 -515 -353 -27 -19 -43 -28 -35 -20
14 15 606 504 1130 935 1546 1271 1432 1180 1470 1176 19 -3 74 -10 123 -16z
m576 -185 c91 -71 312 -238 491 -372 179 -134 476 -359 660 -499 184 -141 411
-313 504 -383 l169 -128 -247 0 -247 0 -307 232 c-169 127 -504 382 -745 565
-240 184 -443 336 -450 338 -6 3 -336 -243 -732 -545 -852 -651 -1381 -1053
-1934 -1472 l-406 -307 -245 0 -245 0 30 22 c16 12 175 132 352 267 1249 950
3175 2409 3182 2410 2 0 78 -58 170 -128z m-349 -1312 l0 -190 -189 0 -188 0
-7 92 c-3 50 -6 135 -6 190 l0 98 195 0 195 0 0 -190z m460 0 l0 -190 -190 0
-190 0 0 190 0 190 190 0 190 0 0 -190z m-465 -467 c-4 -104 -8 -189 -9 -190
-1 -1 -84 1 -184 4 l-182 6 0 184 0 183 191 0 191 0 -7 -187z m465 -3 l0 -190
-190 0 -190 0 0 190 0 190 190 0 190 0 0 -190z m850 -891 c0 -25 -65 -122
-111 -168 -54 -53 -144 -101 -229 -122 -46 -12 -402 -14 -2075 -14 -2303 0
-2072 -10 -2164 91 -40 44 -121 183 -121 209 0 3 503 6 1118 8 3357 7 3582 7
3582 -4z m0 -835 c0 -16 -66 -127 -96 -162 -41 -49 -112 -95 -190 -124 l-59
-23 -1935 0 c-1619 0 -1941 2 -1974 14 -59 21 -119 88 -166 185 -23 48 -39 90
-35 94 4 4 977 9 2163 12 1186 3 2187 6 2225 8 37 1 67 -1 67 -4z"/>
<path d="M7294 2001 c-37 -23 -77 -99 -72 -138 3 -24 8 -28 38 -30 19 -2 80 5
135 15 l100 17 -1 32 c-3 62 -72 123 -141 123 -15 0 -42 -9 -59 -19z"/>
<path d="M3184 2051 c-68 -41 -124 -165 -124 -272 0 -85 5 -92 43 -72 115 58
232 222 213 297 -16 62 -73 83 -132 47z"/>
</g>
</svg>
